<?xml version="1.0" encoding="UTF-8"?>
<svg xmlns="http://www.w3.org/2000/svg" xmlns:xlink="http://www.w3.org/1999/xlink" width="100px" height="67px" viewBox="0 0 100 67" version="1.1">
<g id="surface1">
<path style=" stroke:none;fill-rule:nonzero;fill:rgb(0%,0%,0%);fill-opacity:1;" d="M 61.464844 20.140625 C 61.421875 20.164062 61.355469 20.242188 61.320312 20.3125 C 61.265625 20.421875 61.261719 20.457031 61.300781 20.597656 C 61.398438 21.007812 61.566406 21.253906 62.058594 21.707031 C 62.242188 21.882812 62.386719 22.035156 62.375 22.050781 C 62.359375 22.0625 62.0625 22.089844 61.714844 22.109375 C 61.367188 22.125 60.914062 22.160156 60.707031 22.179688 L 60.328125 22.21875 L 60.183594 22.125 C 60.101562 22.070312 59.742188 21.828125 59.394531 21.585938 C 58.625 21.066406 58.441406 20.96875 58.160156 20.949219 C 57.980469 20.933594 57.9375 20.941406 57.859375 21.003906 C 57.785156 21.0625 57.765625 21.105469 57.765625 21.207031 C 57.765625 21.28125 57.785156 21.390625 57.8125 21.449219 C 57.890625 21.636719 58.347656 22.03125 58.691406 22.207031 C 58.78125 22.25 58.832031 22.300781 58.832031 22.339844 C 58.832031 22.410156 58.859375 22.40625 58.035156 22.527344 C 56.652344 22.734375 56.246094 22.871094 56.136719 23.15625 C 56.023438 23.453125 56.328125 23.652344 56.878906 23.652344 C 57.390625 23.648438 57.964844 23.488281 58.738281 23.128906 C 58.945312 23.027344 59.132812 22.949219 59.148438 22.949219 C 59.183594 22.949219 59.109375 23.066406 58.929688 23.289062 C 58.601562 23.699219 58.511719 24.042969 58.691406 24.1875 C 58.808594 24.28125 58.949219 24.261719 59.148438 24.117188 C 59.328125 23.984375 59.496094 23.773438 59.894531 23.179688 C 60.191406 22.726562 60.285156 22.625 60.484375 22.554688 C 60.539062 22.535156 60.90625 22.5 61.300781 22.476562 C 61.691406 22.457031 62.101562 22.433594 62.199219 22.425781 C 62.328125 22.410156 62.402344 22.421875 62.441406 22.453125 C 62.496094 22.492188 62.484375 22.507812 62.28125 22.625 C 61.964844 22.8125 61.554688 23.113281 61.359375 23.300781 C 61.164062 23.492188 61.085938 23.648438 61.117188 23.789062 C 61.171875 24.03125 61.484375 24.050781 61.898438 23.839844 C 62.273438 23.648438 62.945312 23.191406 63.320312 22.878906 C 63.714844 22.542969 63.769531 22.511719 63.984375 22.511719 C 64.492188 22.511719 66.449219 22.972656 66.492188 23.105469 C 66.507812 23.148438 66.503906 23.148438 65.8125 23.308594 C 65.570312 23.367188 65.25 23.460938 65.097656 23.519531 C 64.664062 23.6875 64.488281 23.914062 64.671875 24.074219 C 64.734375 24.125 64.789062 24.136719 65.097656 24.128906 C 65.78125 24.121094 66.640625 23.9375 67.148438 23.703125 C 67.566406 23.511719 67.601562 23.511719 68.078125 23.773438 C 68.84375 24.195312 70.199219 25.238281 70.15625 25.371094 C 70.144531 25.417969 70.035156 25.449219 69.484375 25.578125 C 68.472656 25.8125 67.84375 26.101562 67.78125 26.347656 C 67.660156 26.832031 68.984375 26.734375 70.054688 26.175781 C 70.253906 26.074219 70.472656 25.957031 70.542969 25.917969 C 70.652344 25.863281 70.671875 25.859375 70.742188 25.90625 C 70.785156 25.933594 71.078125 26.21875 71.398438 26.546875 C 71.71875 26.871094 72.011719 27.144531 72.046875 27.15625 C 72.082031 27.167969 72.132812 27.148438 72.175781 27.109375 C 72.234375 27.046875 72.238281 27.027344 72.203125 26.945312 C 72.183594 26.890625 71.914062 26.59375 71.609375 26.28125 C 71.234375 25.890625 71.035156 25.664062 70.988281 25.558594 C 70.9375 25.441406 70.917969 25.296875 70.898438 24.808594 C 70.84375 23.640625 70.6875 22.675781 70.464844 22.191406 C 70.359375 21.953125 70.265625 21.875 70.089844 21.875 C 69.9375 21.875 69.824219 21.976562 69.765625 22.164062 C 69.695312 22.390625 69.6875 22.933594 69.75 23.265625 C 69.804688 23.550781 70.023438 24.226562 70.171875 24.558594 C 70.207031 24.644531 70.234375 24.753906 70.226562 24.804688 C 70.214844 24.890625 70.203125 24.882812 69.765625 24.53125 C 69.109375 24.003906 68.332031 23.503906 67.722656 23.214844 C 67.578125 23.144531 67.484375 23.078125 67.453125 23.019531 C 67.429688 22.972656 67.347656 22.652344 67.265625 22.3125 C 67.003906 21.160156 66.886719 20.855469 66.613281 20.601562 C 66.425781 20.433594 66.257812 20.417969 66.101562 20.558594 C 65.839844 20.796875 65.929688 21.566406 66.304688 22.269531 C 66.488281 22.621094 66.507812 22.699219 66.394531 22.667969 C 65.625 22.441406 64.742188 22.257812 64.050781 22.175781 C 63.867188 22.152344 63.679688 22.113281 63.632812 22.085938 C 63.585938 22.058594 63.453125 21.90625 63.332031 21.75 C 62.675781 20.871094 61.960938 20.171875 61.648438 20.117188 C 61.597656 20.105469 61.511719 20.117188 61.464844 20.140625 Z M 61.785156 20.578125 C 62.035156 20.753906 62.328125 21.042969 62.652344 21.453125 C 62.84375 21.691406 62.992188 21.890625 62.984375 21.902344 C 62.976562 21.914062 62.851562 21.851562 62.714844 21.773438 C 62.246094 21.503906 61.828125 21.042969 61.683594 20.640625 C 61.65625 20.5625 61.644531 20.503906 61.652344 20.503906 C 61.664062 20.503906 61.71875 20.535156 61.785156 20.578125 Z M 66.574219 21.171875 C 66.726562 21.429688 66.878906 21.890625 66.933594 22.265625 C 67 22.714844 66.976562 22.738281 66.777344 22.429688 C 66.445312 21.917969 66.300781 21.507812 66.300781 21.09375 C 66.300781 20.863281 66.300781 20.863281 66.371094 20.910156 C 66.410156 20.9375 66.5 21.054688 66.574219 21.171875 Z M 58.566406 21.46875 C 58.785156 21.578125 59.367188 21.96875 59.5 22.097656 C 59.640625 22.234375 59.09375 22.058594 58.78125 21.871094 C 58.679688 21.808594 58.511719 21.679688 58.414062 21.578125 C 58.132812 21.300781 58.175781 21.269531 58.566406 21.46875 Z M 70.261719 22.691406 C 70.316406 22.859375 70.386719 23.125 70.417969 23.28125 C 70.484375 23.625 70.523438 24.421875 70.472656 24.371094 C 70.429688 24.328125 70.183594 23.660156 70.117188 23.398438 C 70.054688 23.160156 70.011719 22.609375 70.046875 22.429688 C 70.082031 22.246094 70.148438 22.324219 70.261719 22.691406 Z M 62.882812 22.769531 C 62.601562 23.042969 61.804688 23.550781 61.671875 23.550781 C 61.59375 23.550781 61.683594 23.449219 61.886719 23.300781 C 62.113281 23.136719 63.027344 22.578125 63.0625 22.578125 C 63.074219 22.582031 62.992188 22.667969 62.882812 22.769531 Z M 57.992188 22.953125 C 58.058594 23.011719 58.039062 23.046875 57.910156 23.105469 C 57.511719 23.269531 56.714844 23.378906 56.570312 23.285156 C 56.464844 23.214844 56.667969 23.132812 57.242188 23.007812 C 57.796875 22.890625 57.902344 22.882812 57.992188 22.953125 Z M 66.472656 23.570312 C 66.351562 23.625 65.9375 23.71875 65.828125 23.71875 C 65.5625 23.71875 66.214844 23.53125 66.5 23.523438 C 66.578125 23.523438 66.574219 23.527344 66.472656 23.570312 Z M 69.714844 25.941406 C 69.519531 26.078125 68.898438 26.265625 68.644531 26.265625 C 68.570312 26.265625 68.558594 26.257812 68.601562 26.230469 C 68.746094 26.132812 69.515625 25.902344 69.699219 25.894531 C 69.78125 25.894531 69.78125 25.894531 69.714844 25.941406 Z M 69.714844 25.941406 "/>
<path style=" stroke:none;fill-rule:nonzero;fill:rgb(0%,0%,0%);fill-opacity:1;" d="M 40.175781 27.511719 C 40.082031 27.738281 39.679688 28.6875 39.285156 29.628906 C 38.882812 30.570312 38.476562 31.535156 38.375 31.773438 C 38.277344 32.011719 38.101562 32.417969 37.996094 32.671875 C 37.886719 32.929688 37.800781 33.152344 37.800781 33.167969 C 37.800781 33.1875 37.988281 33.195312 38.253906 33.191406 L 38.703125 33.183594 L 39.25 31.839844 L 40.316406 31.832031 L 41.386719 31.824219 L 41.609375 32.402344 C 41.734375 32.71875 41.851562 33.03125 41.871094 33.089844 L 41.90625 33.199219 L 42.996094 33.199219 L 42.933594 33.054688 C 42.898438 32.976562 42.660156 32.40625 42.398438 31.792969 C 42.140625 31.175781 41.792969 30.359375 41.636719 29.984375 C 41.476562 29.605469 41.136719 28.804688 40.878906 28.195312 C 40.625 27.59375 40.402344 27.101562 40.382812 27.101562 C 40.367188 27.101562 40.273438 27.285156 40.175781 27.511719 Z M 40.699219 30.074219 C 40.886719 30.546875 41.046875 30.957031 41.058594 30.976562 C 41.070312 31.011719 40.914062 31.019531 40.332031 31.019531 C 39.644531 31.019531 39.59375 31.019531 39.613281 30.960938 C 39.714844 30.679688 40.320312 29.210938 40.335938 29.210938 C 40.351562 29.210938 40.511719 29.601562 40.699219 30.074219 Z M 40.699219 30.074219 "/>
<path style=" stroke:none;fill-rule:nonzero;fill:rgb(0%,0%,0%);fill-opacity:1;" d="M 64.464844 30.167969 L 64.464844 33.199219 L 65.410156 33.199219 L 65.394531 31.273438 C 65.386719 30.210938 65.390625 29.347656 65.40625 29.351562 C 65.429688 29.363281 65.960938 29.871094 68.214844 32.078125 C 69.34375 33.179688 69.578125 33.398438 69.613281 33.398438 C 69.625 33.398438 69.632812 32.035156 69.632812 30.367188 L 69.632812 27.335938 L 68.699219 27.335938 L 68.691406 29.300781 L 68.683594 31.269531 L 67.417969 30.015625 C 66.71875 29.324219 65.785156 28.398438 65.332031 27.949219 C 64.882812 27.5 64.503906 27.136719 64.488281 27.136719 C 64.476562 27.136719 64.464844 28.5 64.464844 30.167969 Z M 64.464844 30.167969 "/>
<path style=" stroke:none;fill-rule:nonzero;fill:rgb(0%,0%,0%);fill-opacity:1;" d="M 59.699219 27.304688 C 58.730469 27.46875 57.796875 28.242188 57.433594 29.1875 C 57.003906 30.300781 57.265625 31.5625 58.101562 32.398438 C 58.675781 32.96875 59.394531 33.265625 60.214844 33.265625 C 61.019531 33.265625 61.691406 32.996094 62.28125 32.429688 C 62.671875 32.054688 62.960938 31.578125 63.101562 31.082031 C 63.203125 30.726562 63.226562 30.085938 63.152344 29.714844 C 62.941406 28.664062 62.117188 27.742188 61.101562 27.410156 C 60.6875 27.277344 60.140625 27.234375 59.699219 27.304688 Z M 60.832031 28.273438 C 61.433594 28.476562 61.878906 28.929688 62.128906 29.574219 C 62.207031 29.777344 62.214844 29.84375 62.214844 30.285156 C 62.214844 30.753906 62.210938 30.78125 62.105469 31.039062 C 61.929688 31.484375 61.660156 31.820312 61.289062 32.0625 C 60.953125 32.285156 60.714844 32.34375 60.214844 32.34375 C 59.824219 32.339844 59.761719 32.335938 59.550781 32.25 C 58.945312 32.007812 58.515625 31.570312 58.308594 30.984375 C 58.203125 30.683594 58.171875 30.164062 58.234375 29.84375 C 58.320312 29.378906 58.664062 28.832031 59.03125 28.558594 C 59.21875 28.421875 59.589844 28.253906 59.808594 28.207031 C 60.054688 28.152344 60.59375 28.191406 60.832031 28.273438 Z M 60.832031 28.273438 "/>
<path style=" stroke:none;fill-rule:nonzero;fill:rgb(0%,0%,0%);fill-opacity:1;" d="M 59.820312 29.492188 C 59.519531 29.605469 59.332031 29.914062 59.332031 30.304688 C 59.332031 30.734375 59.574219 31.042969 59.964844 31.125 C 60.34375 31.207031 60.699219 31.042969 60.875 30.707031 C 60.933594 30.597656 60.949219 30.511719 60.949219 30.300781 C 60.949219 30.066406 60.9375 30.007812 60.851562 29.847656 C 60.707031 29.585938 60.503906 29.464844 60.1875 29.457031 C 60.042969 29.449219 59.898438 29.464844 59.820312 29.492188 Z M 59.820312 29.492188 "/>
<path style=" stroke:none;fill-rule:nonzero;fill:rgb(0%,0%,0%);fill-opacity:1;" d="M 45.152344 27.355469 C 44.625 27.460938 44.171875 27.800781 43.964844 28.246094 C 43.867188 28.460938 43.851562 28.535156 43.839844 28.824219 C 43.820312 29.25 43.886719 29.511719 44.082031 29.777344 C 44.316406 30.097656 44.621094 30.292969 45.261719 30.546875 C 46.1875 30.917969 46.464844 31.167969 46.464844 31.625 C 46.46875 32.40625 45.433594 32.679688 44.386719 32.175781 C 44.257812 32.117188 44.101562 32.03125 44.046875 31.996094 L 43.941406 31.925781 L 43.757812 32.253906 C 43.652344 32.433594 43.566406 32.601562 43.558594 32.625 C 43.546875 32.683594 43.921875 32.910156 44.246094 33.035156 C 44.808594 33.253906 45.527344 33.324219 46.050781 33.214844 C 46.714844 33.074219 47.261719 32.578125 47.398438 31.988281 C 47.445312 31.769531 47.441406 31.328125 47.382812 31.105469 C 47.308594 30.824219 47.183594 30.613281 46.96875 30.40625 C 46.726562 30.171875 46.570312 30.085938 45.980469 29.84375 C 45.242188 29.542969 44.921875 29.335938 44.835938 29.101562 C 44.785156 28.972656 44.789062 28.695312 44.847656 28.566406 C 45.050781 28.074219 45.875 28.003906 46.789062 28.394531 C 46.941406 28.460938 47.074219 28.511719 47.078125 28.503906 C 47.144531 28.382812 47.398438 27.828125 47.398438 27.808594 C 47.398438 27.769531 46.878906 27.519531 46.628906 27.441406 C 46.175781 27.300781 45.589844 27.269531 45.152344 27.355469 Z M 45.152344 27.355469 "/>
<path style=" stroke:none;fill-rule:nonzero;fill:rgb(0%,0%,0%);fill-opacity:1;" d="M 34.167969 30.265625 L 34.167969 33.199219 L 35.101562 33.199219 L 35.101562 30.785156 L 37.367188 30.785156 L 37.367188 29.882812 L 35.101562 29.882812 L 35.101562 28.242188 L 37.699219 28.242188 L 37.699219 27.335938 L 34.167969 27.335938 Z M 34.167969 30.265625 "/>
<path style=" stroke:none;fill-rule:nonzero;fill:rgb(0%,0%,0%);fill-opacity:1;" d="M 48.667969 30.265625 L 48.667969 33.199219 L 49.601562 33.199219 L 49.601562 30.71875 L 52.5 30.71875 L 52.5 33.199219 L 53.433594 33.199219 L 53.433594 27.335938 L 52.5 27.335938 L 52.5 29.816406 L 49.601562 29.816406 L 49.601562 27.335938 L 48.667969 27.335938 Z M 48.667969 30.265625 "/>
<path style=" stroke:none;fill-rule:nonzero;fill:rgb(0%,0%,0%);fill-opacity:1;" d="M 55.035156 30.265625 L 55.035156 33.199219 L 55.964844 33.199219 L 55.964844 27.335938 L 55.035156 27.335938 Z M 55.035156 30.265625 "/>
<path style=" stroke:none;fill-rule:nonzero;fill:rgb(0%,0%,0%);fill-opacity:1;" d="M 26.632812 35.675781 L 26.632812 42.007812 L 73.398438 42.007812 L 73.398438 29.347656 L 72.691406 29.351562 L 71.984375 29.363281 L 71.984375 29.796875 L 72.460938 29.808594 L 72.933594 29.816406 L 72.933594 41.539062 L 27.101562 41.539062 L 27.101562 29.816406 L 32.601562 29.816406 L 32.59375 29.585938 L 32.582031 29.363281 L 29.609375 29.351562 L 26.632812 29.347656 Z M 26.632812 35.675781 "/>
<path style=" stroke:none;fill-rule:nonzero;fill:rgb(0%,0%,0%);fill-opacity:1;" d="M 35.03125 35.410156 C 34.664062 35.472656 34.417969 35.707031 34.351562 36.050781 C 34.292969 36.386719 34.53125 36.695312 34.984375 36.878906 C 35.707031 37.175781 35.859375 37.28125 35.929688 37.542969 C 35.976562 37.707031 35.976562 37.769531 35.925781 37.933594 C 35.867188 38.132812 35.6875 38.308594 35.46875 38.371094 C 35.152344 38.464844 34.90625 38.429688 34.519531 38.242188 C 34.394531 38.175781 34.285156 38.125 34.285156 38.132812 C 34.28125 38.136719 34.261719 38.171875 34.238281 38.214844 C 34.203125 38.28125 34.214844 38.292969 34.34375 38.371094 C 34.613281 38.53125 34.859375 38.597656 35.183594 38.601562 C 35.523438 38.605469 35.695312 38.546875 35.90625 38.359375 C 36.089844 38.199219 36.167969 38.011719 36.167969 37.726562 C 36.167969 37.234375 35.976562 37.039062 35.246094 36.753906 C 35.101562 36.695312 34.914062 36.605469 34.828125 36.550781 C 34.394531 36.273438 34.527344 35.726562 35.0625 35.605469 C 35.265625 35.558594 35.59375 35.601562 35.839844 35.707031 L 35.992188 35.769531 L 36.03125 35.6875 C 36.0625 35.617188 36.058594 35.59375 36.027344 35.570312 C 35.960938 35.527344 35.664062 35.441406 35.445312 35.410156 C 35.230469 35.371094 35.246094 35.371094 35.03125 35.410156 Z M 35.03125 35.410156 "/>
<path style=" stroke:none;fill-rule:nonzero;fill:rgb(0%,0%,0%);fill-opacity:1;" d="M 43.265625 35.429688 C 42.925781 35.519531 42.601562 35.769531 42.363281 36.105469 C 42.007812 36.617188 42.011719 37.375 42.371094 37.917969 C 42.535156 38.167969 42.679688 38.292969 42.984375 38.441406 C 43.867188 38.878906 44.945312 38.421875 45.238281 37.484375 C 45.320312 37.210938 45.320312 36.789062 45.238281 36.519531 C 45.074219 35.992188 44.582031 35.535156 44.058594 35.410156 C 43.851562 35.363281 43.480469 35.371094 43.265625 35.429688 Z M 44.015625 35.628906 C 44.300781 35.699219 44.515625 35.832031 44.710938 36.046875 C 45.355469 36.757812 45.148438 37.839844 44.277344 38.277344 C 44.097656 38.367188 44.058594 38.375 43.699219 38.375 C 43.316406 38.375 43.316406 38.375 43.074219 38.242188 C 42.238281 37.792969 42.058594 36.714844 42.695312 36.035156 C 43.058594 35.652344 43.539062 35.503906 44.015625 35.628906 Z M 44.015625 35.628906 "/>
<path style=" stroke:none;fill-rule:nonzero;fill:rgb(0%,0%,0%);fill-opacity:1;" d="M 38.101562 35.511719 L 38.101562 35.609375 L 39.035156 35.609375 L 39.035156 38.59375 L 39.234375 38.59375 L 39.234375 35.609375 L 40.167969 35.609375 L 40.167969 35.410156 L 38.101562 35.410156 Z M 38.101562 35.511719 "/>
<path style=" stroke:none;fill-rule:nonzero;fill:rgb(0%,0%,0%);fill-opacity:1;" d="M 47.472656 36.992188 L 47.484375 38.574219 L 47.59375 38.585938 L 47.699219 38.59375 L 47.699219 37.25 L 48.070312 37.257812 L 48.441406 37.269531 L 48.722656 37.722656 C 49.296875 38.652344 49.25 38.59375 49.382812 38.59375 L 49.503906 38.59375 L 49.453125 38.5 C 49.425781 38.449219 49.289062 38.21875 49.148438 37.988281 C 48.71875 37.292969 48.652344 37.171875 48.691406 37.15625 C 48.8125 37.117188 49.011719 36.929688 49.089844 36.777344 C 49.167969 36.625 49.179688 36.554688 49.183594 36.3125 C 49.183594 36.050781 49.171875 36.007812 49.082031 35.859375 C 48.960938 35.660156 48.726562 35.496094 48.5 35.445312 C 48.40625 35.425781 48.136719 35.410156 47.898438 35.410156 L 47.464844 35.410156 Z M 48.445312 35.648438 C 48.625 35.691406 48.8125 35.84375 48.898438 36.015625 C 49.03125 36.269531 48.960938 36.65625 48.746094 36.855469 C 48.601562 36.992188 48.488281 37.023438 48.078125 37.039062 L 47.699219 37.0625 L 47.699219 35.609375 L 48.003906 35.609375 C 48.167969 35.609375 48.371094 35.628906 48.445312 35.648438 Z M 48.445312 35.648438 "/>
<path style=" stroke:none;fill-rule:nonzero;fill:rgb(0%,0%,0%);fill-opacity:1;" d="M 51.667969 37 L 51.667969 38.59375 L 53.667969 38.59375 L 53.667969 38.359375 L 51.867188 38.359375 L 51.867188 37.085938 L 53.433594 37.085938 L 53.433594 36.882812 L 51.867188 36.882812 L 51.875 36.253906 L 51.882812 35.628906 L 52.742188 35.617188 L 53.601562 35.609375 L 53.601562 35.410156 L 51.667969 35.410156 Z M 51.667969 37 "/>
<path style=" stroke:none;fill-rule:nonzero;fill:rgb(0%,0%,0%);fill-opacity:1;" d="M 54.847656 38.074219 C 54.832031 38.097656 54.832031 38.144531 54.847656 38.171875 C 54.863281 38.21875 55.765625 38.222656 62.699219 38.222656 L 70.535156 38.222656 L 70.535156 38.023438 L 62.699219 38.023438 C 55.765625 38.023438 54.863281 38.027344 54.847656 38.074219 Z M 54.847656 38.074219 "/>
<path style=" stroke:none;fill-rule:nonzero;fill:rgb(0%,0%,0%);fill-opacity:1;" d="M 56.5 44.214844 C 56.5 44.734375 56.503906 44.757812 56.566406 44.757812 C 56.628906 44.757812 56.632812 44.734375 56.632812 44.378906 L 56.632812 44.003906 L 57.007812 44.378906 C 57.210938 44.585938 57.382812 44.757812 57.390625 44.757812 C 57.394531 44.757812 57.398438 44.523438 57.398438 44.238281 C 57.398438 43.742188 57.398438 43.71875 57.332031 43.71875 C 57.269531 43.71875 57.265625 43.742188 57.265625 44.09375 L 57.261719 44.472656 L 56.882812 44.074219 L 56.5 43.675781 Z M 56.5 44.214844 "/>
<path style=" stroke:none;fill-rule:nonzero;fill:rgb(0%,0%,0%);fill-opacity:1;" d="M 57.992188 43.722656 C 57.671875 43.8125 57.535156 44.289062 57.757812 44.558594 C 57.867188 44.6875 58 44.757812 58.144531 44.757812 C 58.304688 44.757812 58.464844 44.691406 58.445312 44.640625 C 58.433594 44.609375 58.375 44.601562 58.222656 44.613281 C 58.046875 44.625 58.003906 44.617188 57.925781 44.558594 C 57.644531 44.332031 57.792969 43.832031 58.144531 43.839844 C 58.21875 43.839844 58.3125 43.847656 58.351562 43.855469 C 58.433594 43.871094 58.460938 43.765625 58.375 43.742188 C 58.230469 43.699219 58.105469 43.695312 57.992188 43.722656 Z M 57.992188 43.722656 "/>
<path style=" stroke:none;fill-rule:nonzero;fill:rgb(0%,0%,0%);fill-opacity:1;" d="M 70.390625 43.730469 C 70.074219 43.84375 69.941406 44.167969 70.085938 44.472656 C 70.253906 44.824219 70.789062 44.847656 70.996094 44.511719 C 71.246094 44.101562 70.832031 43.570312 70.390625 43.730469 Z M 70.761719 43.886719 C 70.957031 44.003906 71 44.3125 70.84375 44.488281 C 70.597656 44.761719 70.164062 44.605469 70.167969 44.242188 C 70.171875 44.074219 70.222656 43.96875 70.351562 43.882812 C 70.476562 43.800781 70.621094 43.800781 70.761719 43.886719 Z M 70.761719 43.886719 "/>
<path style=" stroke:none;fill-rule:nonzero;fill:rgb(0%,0%,0%);fill-opacity:1;" d="M 55.277344 43.785156 C 55.191406 43.863281 55.171875 44.039062 55.242188 44.128906 C 55.261719 44.160156 55.351562 44.214844 55.433594 44.246094 C 55.515625 44.285156 55.601562 44.332031 55.625 44.363281 C 55.695312 44.445312 55.660156 44.566406 55.558594 44.617188 C 55.464844 44.660156 55.425781 44.65625 55.230469 44.570312 C 55.195312 44.558594 55.167969 44.570312 55.152344 44.605469 C 55.140625 44.644531 55.167969 44.671875 55.25 44.710938 C 55.398438 44.769531 55.542969 44.769531 55.664062 44.707031 C 55.769531 44.652344 55.800781 44.59375 55.800781 44.457031 C 55.800781 44.328125 55.734375 44.253906 55.53125 44.15625 C 55.382812 44.085938 55.347656 44.050781 55.339844 43.980469 C 55.324219 43.847656 55.449219 43.792969 55.625 43.84375 C 55.71875 43.875 55.753906 43.875 55.773438 43.839844 C 55.8125 43.773438 55.742188 43.742188 55.542969 43.722656 C 55.378906 43.714844 55.335938 43.722656 55.277344 43.785156 Z M 55.277344 43.785156 "/>
<path style=" stroke:none;fill-rule:nonzero;fill:rgb(0%,0%,0%);fill-opacity:1;" d="M 56.066406 44.238281 C 56.066406 44.734375 56.070312 44.757812 56.132812 44.757812 C 56.195312 44.757812 56.199219 44.734375 56.199219 44.238281 C 56.199219 43.742188 56.195312 43.71875 56.132812 43.71875 C 56.070312 43.71875 56.066406 43.742188 56.066406 44.238281 Z M 56.066406 44.238281 "/>
<path style=" stroke:none;fill-rule:nonzero;fill:rgb(0%,0%,0%);fill-opacity:1;" d="M 58.699219 44.238281 L 58.699219 44.757812 L 59.050781 44.757812 C 59.375 44.757812 59.398438 44.753906 59.398438 44.6875 C 59.398438 44.628906 59.375 44.621094 59.117188 44.621094 L 58.832031 44.621094 L 58.832031 44.285156 L 59.085938 44.285156 C 59.308594 44.285156 59.335938 44.28125 59.328125 44.226562 C 59.316406 44.179688 59.273438 44.167969 59.074219 44.160156 L 58.832031 44.148438 L 58.832031 43.816406 L 59.101562 43.816406 C 59.3125 43.816406 59.367188 43.808594 59.367188 43.769531 C 59.367188 43.726562 59.308594 43.71875 59.035156 43.71875 L 58.699219 43.71875 Z M 58.699219 44.238281 "/>
<path style=" stroke:none;fill-rule:nonzero;fill:rgb(0%,0%,0%);fill-opacity:1;" d="M 64.828125 43.875 C 64.863281 43.964844 64.945312 44.1875 65.015625 44.371094 C 65.085938 44.554688 65.152344 44.71875 65.167969 44.734375 C 65.179688 44.746094 65.238281 44.640625 65.296875 44.5 C 65.355469 44.355469 65.417969 44.222656 65.429688 44.210938 C 65.441406 44.195312 65.507812 44.3125 65.566406 44.472656 C 65.625 44.628906 65.683594 44.753906 65.691406 44.746094 C 65.710938 44.726562 66.066406 43.777344 66.066406 43.746094 C 66.066406 43.730469 66.039062 43.71875 66.007812 43.71875 C 65.964844 43.71875 65.921875 43.808594 65.820312 44.09375 L 65.691406 44.464844 L 65.550781 44.097656 C 65.441406 43.8125 65.394531 43.730469 65.339844 43.722656 C 65.273438 43.714844 65.273438 43.71875 65.324219 43.847656 C 65.375 43.976562 65.375 43.992188 65.300781 44.191406 C 65.257812 44.308594 65.214844 44.414062 65.203125 44.425781 C 65.191406 44.445312 65.125 44.285156 65.054688 44.085938 C 64.941406 43.757812 64.917969 43.71875 64.847656 43.71875 L 64.765625 43.71875 Z M 64.828125 43.875 "/>
<path style=" stroke:none;fill-rule:nonzero;fill:rgb(0%,0%,0%);fill-opacity:1;" d="M 66.300781 44.238281 C 66.300781 44.734375 66.304688 44.757812 66.367188 44.757812 C 66.429688 44.757812 66.433594 44.734375 66.433594 44.238281 C 66.433594 43.742188 66.429688 43.71875 66.367188 43.71875 C 66.304688 43.71875 66.300781 43.742188 66.300781 44.238281 Z M 66.300781 44.238281 "/>
<path style=" stroke:none;fill-rule:nonzero;fill:rgb(0%,0%,0%);fill-opacity:1;" d="M 66.667969 43.769531 C 66.667969 43.804688 66.703125 43.816406 66.800781 43.816406 L 66.933594 43.816406 L 66.933594 44.285156 C 66.933594 44.734375 66.9375 44.757812 67 44.757812 C 67.0625 44.757812 67.066406 44.734375 67.066406 44.285156 L 67.066406 43.816406 L 67.214844 43.816406 C 67.328125 43.816406 67.367188 43.804688 67.367188 43.769531 C 67.367188 43.726562 67.308594 43.71875 67.015625 43.71875 C 66.726562 43.71875 66.667969 43.726562 66.667969 43.769531 Z M 66.667969 43.769531 "/>
<path style=" stroke:none;fill-rule:nonzero;fill:rgb(0%,0%,0%);fill-opacity:1;" d="M 67.601562 44.238281 C 67.601562 44.734375 67.601562 44.757812 67.667969 44.757812 C 67.726562 44.757812 67.734375 44.734375 67.734375 44.523438 L 67.734375 44.285156 L 68.265625 44.285156 L 68.265625 44.523438 C 68.265625 44.734375 68.273438 44.757812 68.332031 44.757812 C 68.398438 44.757812 68.398438 44.734375 68.398438 44.238281 C 68.398438 43.742188 68.398438 43.71875 68.332031 43.71875 C 68.273438 43.71875 68.265625 43.742188 68.265625 43.933594 L 68.265625 44.152344 L 67.734375 44.152344 L 67.734375 43.933594 C 67.734375 43.742188 67.726562 43.71875 67.667969 43.71875 C 67.601562 43.71875 67.601562 43.742188 67.601562 44.238281 Z M 67.601562 44.238281 "/>
<path style=" stroke:none;fill-rule:nonzero;fill:rgb(0%,0%,0%);fill-opacity:1;" d="M 69.253906 44.042969 C 69.410156 44.332031 69.433594 44.394531 69.433594 44.5625 C 69.433594 44.734375 69.441406 44.757812 69.5 44.757812 C 69.558594 44.757812 69.566406 44.734375 69.566406 44.589844 C 69.566406 44.445312 69.597656 44.371094 69.765625 44.070312 C 69.953125 43.734375 69.960938 43.71875 69.882812 43.71875 C 69.820312 43.71875 69.78125 43.769531 69.667969 43.976562 C 69.507812 44.265625 69.511719 44.269531 69.328125 43.910156 C 69.253906 43.757812 69.214844 43.71875 69.152344 43.71875 C 69.074219 43.71875 69.078125 43.726562 69.253906 44.042969 Z M 69.253906 44.042969 "/>
<path style=" stroke:none;fill-rule:nonzero;fill:rgb(0%,0%,0%);fill-opacity:1;" d="M 71.300781 44.070312 C 71.300781 44.476562 71.347656 44.625 71.496094 44.703125 C 71.691406 44.804688 71.949219 44.742188 72.027344 44.570312 C 72.050781 44.523438 72.066406 44.328125 72.066406 44.101562 C 72.066406 43.792969 72.058594 43.71875 72.019531 43.71875 C 71.984375 43.71875 71.96875 43.796875 71.960938 44.101562 C 71.949219 44.4375 71.941406 44.496094 71.878906 44.554688 C 71.777344 44.664062 71.605469 44.65625 71.511719 44.542969 C 71.441406 44.457031 71.433594 44.421875 71.433594 44.082031 C 71.433594 43.742188 71.429688 43.71875 71.367188 43.71875 C 71.304688 43.71875 71.300781 43.742188 71.300781 44.070312 Z M 71.300781 44.070312 "/>
<path style=" stroke:none;fill-rule:nonzero;fill:rgb(0%,0%,0%);fill-opacity:1;" d="M 61.550781 43.824219 C 61.441406 43.882812 61.398438 43.957031 61.398438 44.078125 C 61.398438 44.238281 61.457031 44.335938 61.515625 44.285156 C 61.554688 44.257812 61.558594 44.230469 61.53125 44.179688 C 61.441406 44.015625 61.605469 43.863281 61.785156 43.949219 C 61.847656 43.976562 61.867188 44.007812 61.867188 44.097656 C 61.867188 44.210938 61.808594 44.308594 61.574219 44.585938 L 61.425781 44.757812 L 61.730469 44.757812 C 62.011719 44.757812 62.035156 44.753906 62.035156 44.6875 C 62.035156 44.632812 62.011719 44.621094 61.863281 44.621094 L 61.695312 44.621094 L 61.808594 44.476562 C 61.875 44.402344 61.941406 44.304688 61.964844 44.261719 C 62.101562 43.988281 61.8125 43.675781 61.550781 43.824219 Z M 61.550781 43.824219 "/>
<path style=" stroke:none;fill-rule:nonzero;fill:rgb(0%,0%,0%);fill-opacity:1;" d="M 62.417969 43.816406 C 62.152344 43.925781 62.078125 44.375 62.285156 44.617188 C 62.449219 44.816406 62.765625 44.78125 62.886719 44.546875 C 62.960938 44.40625 62.960938 44.132812 62.886719 43.988281 C 62.804688 43.828125 62.582031 43.746094 62.417969 43.816406 Z M 62.742188 44.027344 C 62.832031 44.148438 62.832031 44.390625 62.742188 44.515625 C 62.574219 44.742188 62.300781 44.59375 62.300781 44.269531 C 62.300781 44.140625 62.375 43.96875 62.441406 43.9375 C 62.539062 43.898438 62.679688 43.9375 62.742188 44.027344 Z M 62.742188 44.027344 "/>
<path style=" stroke:none;fill-rule:nonzero;fill:rgb(0%,0%,0%);fill-opacity:1;" d="M 63.125 43.808594 C 63.078125 43.847656 63.101562 43.917969 63.148438 43.917969 C 63.191406 43.917969 63.199219 43.988281 63.199219 44.335938 C 63.199219 44.734375 63.203125 44.757812 63.265625 44.757812 C 63.328125 44.757812 63.332031 44.734375 63.332031 44.269531 L 63.332031 43.785156 L 63.238281 43.785156 C 63.1875 43.785156 63.132812 43.792969 63.125 43.808594 Z M 63.125 43.808594 "/>
<path style=" stroke:none;fill-rule:nonzero;fill:rgb(0%,0%,0%);fill-opacity:1;" d="M 63.632812 44.03125 L 63.632812 44.28125 L 63.765625 44.261719 C 63.929688 44.238281 64 44.289062 64 44.4375 C 64 44.582031 63.933594 44.632812 63.761719 44.617188 C 63.597656 44.601562 63.546875 44.667969 63.683594 44.722656 C 63.832031 44.78125 63.953125 44.761719 64.046875 44.667969 C 64.230469 44.480469 64.117188 44.148438 63.867188 44.140625 C 63.777344 44.136719 63.765625 44.125 63.765625 44.027344 C 63.765625 43.917969 63.765625 43.917969 63.9375 43.917969 C 64.078125 43.917969 64.101562 43.910156 64.09375 43.859375 C 64.082031 43.8125 64.039062 43.796875 63.855469 43.792969 L 63.632812 43.78125 Z M 63.632812 44.03125 "/>
</g>
</svg>
